<?xml version="1.0" encoding="utf-8"?>
<!-- Generator: Adobe Illustrator 26.5.0, SVG Export Plug-In . SVG Version: 6.00 Build 0)  -->
<svg version="1.1" id="Capa_1" xmlns="http://www.w3.org/2000/svg" xmlns:xlink="http://www.w3.org/1999/xlink" x="0px" y="0px"
	 viewBox="0 0 541 444" style="enable-background:new 0 0 541 444;" xml:space="preserve">
<style type="text/css">
	.st0{fill:#A4A7B2;}
	.st1{fill:#FFFFFF;}
</style>
<g>
	<path class="st0" d="M0.11,154.02c2.11,0.41,515.7-1.12,515.7-1.12l25.09,117.16L30.77,283.92L0.11,154.02z"/>
	<path class="st0" d="M344.25,96.89c0.01-2.84-3.01-5.7-6.03-5.7c-1.6,0-11.74,3.53-23.85,8.49c-11.57,4.6-26.34,10.26-26.52,10.08
		c-0.18-0.18,3.57-5.5,21.76-30.54c12.13-16.87,27.29-39.07,28.01-41.2c0.72-1.95,0.36-3.73-0.88-5.51
		c-1.42-1.78-2.49-2.14-12.97-5.19c-5.15-1.43-11.02-3.22-13.15-3.94l-3.91-1.25l6.05-0.7c8-0.87,19.03-2.45,22.06-3.15
		c4.45-1.06,6.41-2.83,6.42-6.03c0-1.96-1.24-3.91-3.01-4.81c-2.31-1.25-7.64-1.08-28.81,1.01c-25.16,2.43-28.44,2.96-31.63,4.54
		c-0.07-2.07-0.19-3.2-0.38-4.25c-1.06-5.51-2.83-7.65-6.21-7.66c-3.38-0.01-5.34,2.12-6.06,6.57c-0.18,1.42-0.55,6.58-0.74,11.56
		c-0.19,4.98-0.55,9.6-0.73,10.31l-0.18,1.24l-3.38,0.35c-1.78,0.17-7.29,0.34-12.09,0.33l-8.71-0.02l0.01-4.27
		c0.01-6.05-0.67-19.21-1.2-20.99c-1.23-4.63-6.03-7.31-9.95-5.53c-1.6,0.71-3.21,2.48-4.1,4.61l-0.71,0.18
		c-0.71,1.42-0.72,3.02-0.74,13.69c-0.01,6.58-0.2,12.27-0.38,12.45c-0.18,0.18-1.42,0.53-2.85,0.71c-3.02,0.17-4.98,1.06-6.23,3.01
		c-1.25,1.95-1.26,5.15-0.01,6.94c1.6,2.32,2.84,3.03,6.22,3.21l3.2,0.19l-0.07,7.78c-2.75-0.25-6.49-0.4-11.68-0.52l-12.98,0.33
		l-0.13-23.83c-0.12-26.5,0.05-25.25-2.96-27.57c-1.95-1.43-5.15-1.79-7.11-0.73c-1.96,1.06-3.56,3.19-4.28,5.68l0.18,0.36
		c-0.9,3.02-2.37,28.63-2.4,41.25c-0.01,4.09-0.19,5.51-0.55,5.69c-0.36,0.18-4.45,0.52-9.25,0.69c-9.6,0.51-11.92,0.86-14.59,2.1
		c-4.81,2.3-5,8.7-0.38,11.2l1.78,0.89l10.14-0.69c5.69-0.34,10.67-0.69,11.21-0.69l0.89,0l-0.04,17.25
		c-0.02,9.6,0.12,25.61,0.28,35.57c0.49,20.63,0.49,20.45,3.86,22.59c1.6,1.07,2.13,1.25,4.27,1.08c3.02-0.17,4.98-1.41,6.23-3.9
		c0.89-2.13,1.64-19.56,2.24-51.03c0.2-12.45,0.58-22.76,0.76-22.94c0.18-0.18,5.51-0.52,11.92-0.69c5.65-0.18,9.63-0.35,12.49-0.53
		l-0.06,7.14c-0.25,33.43-0.28,49.08,0.07,51.39c0.18,1.42,0.71,2.31,1.95,3.56c2.13,2.14,4.26,2.5,6.93,1.44
		c3.74-1.59,4.28-3.9,4.85-21.33c0.38-13.34,0.57-17.25,1.49-30.41c0.37-4.8,0.92-14.05,1.29-20.45l0.56-11.56l1.96-0.17
		c1.07-0.18,6.4-0.34,11.74-0.51l9.78-0.33l-0.23,23.47c-0.23,25.61,0.24,53.17,1.12,60.29c0.7,5.34,1.59,6.94,4.25,8.19
		c2.31,1.07,4.62,0.72,6.4-0.88c1.54-1.22,2.13-1.35,2.44-7.74c3.64-1.18,9.34-3.29,18.75-6.8c25.27-9.37,32.57-12.38,40.94-16.27
		C343.17,100.8,344.24,99.74,344.25,96.89z M277.38,99.8c0-0.07,0-0.13,0-0.2c0.22-17.25,0.45-43.92,0.48-59.4
		c0.01-5.93,0.02-10.64,0.02-14.43c3.75,1.63,14.74,5.23,24.35,7.91c9.06,2.51,19.73,5.73,19.9,5.91c0,0.18-1.43,2.31-3.39,4.79
		c-4.99,6.39-32.46,42.79-36.56,48.65C280.49,95.38,278.88,97.66,277.38,99.8z"/>
	<g>
		<path class="st1" d="M125.65,224.01c-0.45-2.31-4.93-7.12-8.32-8.77c-2.76-1.45-15.65-4.26-19.03-4.22
			c-4.01,0.04-6.51,2.6-6.47,6.61c0.04,4.01,2.6,6.09,8.93,7.07c1.69,0.4,3.38,0.81,3.81,1.01c0.42,0.21-1.64,4.45-6.6,13.57
			c-3.93,7.21-9.3,17.18-11.78,22.06c-2.48,4.88-4.55,8.69-4.55,8.69s-0.08-7.59,0.03-16.87c0.11-9.28-0.06-25.52-0.39-36.27
			c-0.71-26.77-1.07-60.09-0.65-60.09c0.21,0,3.83,3.12,8.09,7.08c19.38,17.5,19.38,17.5,23.17,17.46c5.06-0.05,8.79-6,6.43-10.19
			c-0.86-1.47-38.57-37.54-40.91-39.2c-2.55-1.66-5.72-2.05-7.6-0.97c-4.4,2.58-4.75,9.54-3.84,93.67l-0.22-0.63
			c0.36,33.53,0.67,62.41,0.69,64.1c0.04,3.58,1.34,7.37,3.26,9.03c0.64,0.63,2.12,1.45,3.4,2.07c2.33,1.03,2.54,1.03,5.06,0.16
			c5.26-1.53,9.22-5.37,13.57-13.01c3.31-5.94,11.36-21.84,13.22-25.87c1.65-3.6,5.79-10.82,6.21-10.82c0.21,0,0.48,5.06,0.54,11.17
			c0.32,10.12,0.33,11.17,1.19,12.64c3.01,5.03,9.55,5.17,12.02,0.29c0.82-1.91,0.81-3.17,0.99-25.11
			C125.99,236.03,125.87,224.85,125.65,224.01z"/>
		<path class="st1" d="M199.84,239.66c-3.51-12.4-6.8-24.6-6.81-25.23c0-0.42,1.89-0.65,6.53-1.12c8.64-0.73,13.9-2.05,13.82-9.22
			c-0.04-4.01-0.93-7.79-14.2-6.17l-10.53,0.96l-0.45-2.74c-0.22-1.05-1.98-7.57-3.74-14.51c-7.05-27.55-12.07-44.15-14.65-48.34
			c-1.5-2.51-4.7-5.43-6.39-5.84c-2.75-0.6-3.59-0.59-5.06-0.16c-0.84,0.22-2.52,1.08-3.57,1.73l-1.06-0.62
			c-3.77,2.57-4.57,5.95-9.71,37.85c-8.49,53.23-13.13,92.72-12.94,110.43c0.06,5.48,0.28,6.53,1.36,8.42
			c2.59,5.03,9.55,5.17,12.45,0.29c1.04-1.7,1.63-5.08,4.34-27.88c1.17-9.08,2.93-21.54,3.92-27.67c0.99-6.13,1.98-12.04,2.18-13.31
			l0.4-2.32l8.01-0.09c5.69-0.06,8.01,0.13,8.44,0.54c0.21,0.42,0.87,2.73,1.53,5.26c0.66,2.31,3.07,10.93,5.48,19.13
			c2.41,8.2,6.79,23.54,9.65,34.27c5.71,21.24,8.76,30.48,10.69,33.2c3.21,4.39,9.75,4.96,13.29,0.91
			c2.71-2.98,2.89-5.52,1.11-14.56C212.79,287.18,204.66,256.48,199.84,239.66z M165.65,198.7l-0.21,0
			c-1.48,0.02-3.58,0.25-4.63,0.47l-1.9,0.23l0.19-2.11c0.37-4.64,3.34-22.6,3.56-22.39c0.21,0.21,1.53,5.04,2.86,10.72
			C169.04,200.35,169.03,198.66,165.65,198.7z"/>
		<path class="st1" d="M380.98,241.08c-1.9,0.02-13.87,4.37-28.15,10.43c-13.65,5.63-31.07,12.57-31.29,12.36
			c-0.21-0.21,4.15-6.58,25.33-36.54c14.12-20.19,31.76-46.74,32.58-49.28c0.82-2.33,0.37-4.43-1.12-6.52
			c-1.71-2.09-2.98-2.5-15.46-5.95c-6.13-1.62-13.11-3.65-15.65-4.47l-4.66-1.43l7.16-0.92c9.48-1.16,22.53-3.19,26.1-4.08
			c5.26-1.32,7.55-3.45,7.51-7.25c-0.02-2.32-1.53-4.62-3.65-5.65c-2.76-1.45-9.08-1.17-34.15,1.63
			c-29.91,3.28-33.7,3.95-37.47,5.89l-0.21-0.21c-3.15,1.51-4.61,3-5.42,5.75c-1.43,4.02,0.07,6.75,5.16,9.22
			c3.39,1.65,17.57,6.14,29.84,9.38c10.79,2.84,23.48,6.5,23.69,6.7c0,0.21-1.66,2.76-3.95,5.74c-5.82,7.65-37.83,51.23-42.6,58.24
			c-5.21,7.44-9.78,14.22-12.76,19.01c-0.25-6.21-0.65-14.17-1.21-24.13c-0.52-8.64-1.19-32.46-1.62-52.7
			c-0.48-24.88-1.04-37.73-1.48-39.21c-1.1-4.42-5.35-7.53-9.78-7.49c-3.8,0.04-7.14,3.03-8.57,7.47
			c-1.63,5.29-5.94,16.09-10.46,26.89c-2.68,6.14-5.96,14.19-7.4,18c-1.44,3.81-2.88,7.2-3.08,7.41c-0.21,0.21-1.3-2.73-2.6-6.51
			c-3.5-11.35-10.88-31.3-15.64-42.01c-3.89-9.03-7.53-14.05-11.13-15.27c-1.9-0.61-5.06-0.37-6.95,0.5
			c-2.31,1.08-3.75,4.05-4.54,9.33l0-0.42c-0.59,3.59-0.48,14.56,0.13,70.22c0.7,64.52,0.71,66,1.57,67.46
			c1.29,2.1,4.05,3.75,6.58,4.15c3.59,0.59,7.36-1.77,8.59-5.36c0.2-0.63,0.39-3.17,0.57-5.7c0.18-2.53,0.33-8.23,0.49-12.87
			c0.16-4.64,0.17-22.99,0.19-40.91l-0.14-32.68l3.47,9.24c8.47,23.11,13.63,31.91,18.69,31.85c1.9-0.02,5.46-1.96,6.71-3.66
			c1.04-1.7,5.15-11.23,10.28-24.36c2.05-5.29,3.9-9.74,4.11-9.96c0.21-0.21,0.71,7.16,1.02,16.44c0.93,27.62,3.49,69.55,4.57,72.07
			c0.65,1.89,3.43,4.81,5.33,5.64c3.2,1.27,6.77,0.55,9.36-1.61c0.26,0.19,0.51,0.34,0.75,0.44c3.18,1.65,4.44,1.22,31.32-9.2
			c29.82-11.5,38.43-15.18,48.29-19.92c7.76-3.88,9.01-5.16,8.98-8.53C388.19,244.38,384.57,241.04,380.98,241.08z"/>
		<path class="st1" d="M470.06,269.01c-1.5-2.09-6.43-10.05-10.94-17.6c-10.09-16.76-18.25-29.75-23.6-37.49l-3.86-5.86l6.95-0.5
			c10.96-0.75,17.69-1.88,20.21-3.38c0.84-0.43,1.67-1.49,2.08-2.55c0.41-1.06,1.03-2.33,1.44-2.97c1.24-2.33,1.22-4.44-0.08-6.96
			c-2.37-5.04-16.22-17.75-43.45-40.02c-18.08-14.78-22.54-17.05-26.93-14.05c-3.35,2.36-3.35,2.36-2.45,26.6l1.06,0.62
			c0.55,11.8,0.89,23.4,0.91,25.72l0.05,4.22l-4.22,0.26c-4.64,0.26-7.58,1.35-9.24,3.47c-1.46,1.7-1.66,2.97-1.2,5.71
			c0.23,1.9,0.66,2.73,2.15,4.2l1.92,1.88l5.48-0.06c3.16-0.03,5.69-0.06,5.9-0.06c0.64,0.63,4.09,47.19,4.21,58.16
			c0.05,4.64,0.7,6.74,2.62,8.83c2.99,3.13,7.63,3.08,11.18-0.12c2.72-2.35,2.91-3.83,2.14-16.47c-0.74-10.11-1.27-19.6-2.36-43.2
			l-0.52-8.85l2.53-0.24c1.47-0.23,2.95-0.24,3.16-0.24c0.21,0,3.43,5.23,7.08,11.52c7.31,12.79,13.53,22.84,27.91,45.88
			c7.51,11.94,10.51,16.34,12.43,18.21c3.2,3.13,4.26,3.75,6.58,3.72c3.37-0.04,6.51-2.81,6.47-5.97
			C475.65,279.5,472.84,273.2,470.06,269.01z M378.93,208l-0.21-0.21c-0.85-0.62-0.85-0.83-0.22-0.84c0.21,0,0.64,0.41,0.85,0.83
			C379.57,208.41,379.57,208.41,378.93,208z M408.5,192.28c-0.21-0.21-1.71-22.12-1.77-27.18l-0.04-3.37l1.7,1.46
			c0.85,0.83,5.11,4.58,9.16,8.34c4.05,3.75,11.07,9.79,15.54,13.54l0-0.21l7.88,6.66l-5.27,0.27
			C429.16,192.27,408.92,192.7,408.5,192.28z"/>
	</g>
	<g>
		<path class="st0" d="M275.63,406.75c-1.72,0.89-4.52,2.41-6.23,3.3c-1.72,0.89-6.5,3.83-10.65,6.53l-7.68,4.99l-0.76-7.23
			c-0.34-3.95-1.13-12.67-1.83-19.41c-1.49-15.46-10.13-86.43-10.77-88.84c-0.95-3.54-4.71-5.55-8.04-4.29
			c-2.7,1.01-3.92,3.17-4.09,7.02l0.06,0.49c-0.07,3.34,1.61,20.27,4.19,42.91c0.74,6.57,2.03,17.99,3.34,29.73
			c-0.59,0.09-1.19,0.26-1.77,0.53c-1.25,0.66-7.74,7.16-19.75,19.86c-2.65,2.67-4.88,4.79-5.06,4.65c-0.37-0.29-2.82-19.28-7-54.37
			c-1.9-16.07-2.6-22.81-2.25-22.68c0.19,0.14,3.39,1.73,7.12,3.58c7.28,3.56,10.95,4.92,12.59,4.71c4.26-0.55,6.04-6.1,2.85-8.86
			c-3.18-2.75-13.96-8.86-23.33-13.15c-6.73-3.13-9.78-3.57-12.4-1.9c-2.64,1.51-2.63,2.84-0.74,21.4l0.04,0.33
			c1.49,15.46,9.28,79.88,10.67,88.03c0.92,5.87,0.94,6.04,2.09,7.22c1.91,1.92,3.47,2.38,5.74,1.93c0.96-0.29,2.23-0.79,2.68-1.18
			c1.39-0.84,13.14-14.34,22.07-25.15c2.38-2.73,5.81-6.83,8.16-9.53c0.13,1.16,0.25,2.31,0.37,3.43l3.2,30.05l-1.3,1.5
			c-1.45,1.68-2.46,4.15-2.23,5.95c0.42,3.27,3.59,5.86,6.9,5.77c1.82-0.07,2.46-0.32,6.13-2.79c2.31-1.46,9.24-5.85,15.57-9.66
			c12.34-7.58,22.37-15.03,23.86-17.72c1.22-2.15,1-5.12-0.58-7.08C284.41,403.79,280.74,403.76,275.63,406.75z"/>
		<path class="st0" d="M328.51,330.02c-3.44-22.86-5.93-37.03-6.68-38.93c-1.26-3.33-5.1-4.67-7.85-2.82
			c-1.84,1.24-2.49,2.65-2.6,5.66l0.06,0.49c-0.1,1.84,1.74,17.42,5.94,50.01c5.54,43.07,6.65,52.92,6.39,56.11
			c-0.06,0.84-0.35,1.21-1.29,1.66c-2.37,0.97-16.4,5.77-16.59,5.63c-0.19-0.14-0.63-4.91-1.04-10.69
			c-1.35-16.97-5.25-51.1-7.51-64.79c-2.79-17.79-4.72-28.86-5.4-30.27c-0.95-2.21-3.5-3.88-5.46-3.63
			c-0.49,0.06-1.9,0.74-3.29,1.59c-3.98,2.68-3.97,1.51-0.74,22.74c4.95,31.99,5.88,40.53,8.18,76.52
			c0.76,11.06,1.1,15.01,1.62,16.44c1.88,5.58,6.87,8.11,13.34,6.61c5.5-1.21,27.59-9.38,29.39-10.94
			c2.72-2.18,3.93-5.67,3.91-10.99c0.08-4.51-2-19.39-5.05-36.64C332.43,355.32,329.98,340.15,328.51,330.02z"/>
		<path class="st0" d="M363.6,328.5c7.18-7.58,13.69-15.25,17.97-20.79c5.11-6.82,5.84-8.91,3.93-12.16
			c-1.71-2.94-2.41-3.19-14.44-4.8c-4.92-0.7-12.54-1.71-17.13-2.46c-8.48-1.24-10.98-1.25-14.36-0.32
			c-2.09,0.6-3.45,1.61-4.55,3.42l0.54,0.26c-0.69,1.09-0.63,1.58,2.54,27.48c1.69,14.43,3.62,32,4.34,38.9
			c1.94,20.23,4.98,46.47,5.96,51.51c0.98,5.03,1.41,5.81,3.92,7.15c1.43,0.81,3.42,0.72,5.14-0.16c0.63-0.25,1.74-0.72,2.54-0.99
			c1.76-0.56,3.47-2.78,5.28-6.84c5.24-12.33,14.24-38.12,16.88-48.62c1.68-6.38,1.76-7.05,1.42-9.67
			c-0.73-4.4-0.36-4.11-15.73-12.29c-4.64-2.4-8.41-4.58-8.44-4.74C359.38,333.2,361.26,330.96,363.6,328.5z M362.86,348.57
			c4.82,2.54,8.78,4.86,8.83,5.19l0.02,0.16c0.11,0.82-11.51,32.11-13,34.8c-0.27,0.53-0.6-2.09-2.17-15.54
			c-2.15-18.04-3.28-29.38-2.77-29.28C353.93,343.89,358.03,346.03,362.86,348.57z M350.64,324.84c-0.35-0.12-3.64-25.67-3.31-25.71
			c0.16-0.02,4.41,0.6,9.51,1.44c5.1,0.84,10.21,1.68,11.4,1.86l0.31-0.21l2.21,0.38l-4.89,5.96
			C360.09,315.46,351.16,324.94,350.64,324.84z"/>
	</g>
</g>
</svg>
